<svg id="f346bef2-a276-4092-a2ee-a5b58783dc2b" data-name="Layer 1" xmlns="http://www.w3.org/2000/svg" width="8.98in" height="8.12in" viewBox="0 0 646.69 584.86">
  <g>
    <g>
      <path d="M276.22,131.47c-4.13,6.9,3.38,10.83,3.7,11,9,4.58,20.31-2.4,18.93-9.54C297.41,125.49,282.53,123.18,276.22,131.47Z" style="fill: #ce2028"/>
      <path d="M299.49,105.82c9.06,1.47,16.79-3.38,13.56-8.51-3.7-5.87-21.38-6.23-23,1.39C289.94,104.2,299.1,105.75,299.49,105.82Z" style="fill: #ce2028"/>
      <path d="M167.87,391.2l0,0c.29.19.58.41.87.57Z" style="fill: #ce2028"/>
      <path d="M167.58,375.28c-4.7,1.58-4.66,7-4,9.61a11,11,0,0,0,4.13,6.2h0l.1.09c5.47,3.34,8.27-1,8.57-1.46C179.71,384.18,174.64,373.83,167.58,375.28Z" style="fill: #ce2028"/>
      <path d="M226.74,461.25q3.54-1.53,7.18-3.2C230.65,457.66,228,459,226.74,461.25Z" style="fill: #ce2028"/>
      <path d="M166.84,390.48c.32.24.66.46,1,.7l-.11-.09Z" style="fill: #ce2028"/>
      <path d="M349.46,379.44c2.19-7.29-5.43-14.7-13.14-10.18a8.9,8.9,0,0,0-2.95,11.39A8.64,8.64,0,0,0,349.46,379.44Z" style="fill: #ce2028"/>
      <path d="M299.26,371.67c2.29-7-5-14.88-12.65-11.1a8.52,8.52,0,0,0-3.14,10.95C286.82,378.91,296.84,379,299.26,371.67Z" style="fill: #ce2028"/>
      <path d="M389.44,76.84c1.95.71,3.08,1.1,3.78,1.33-5.23-2-11.06-4.28-16.21-6.06l1.21.5C381.86,74,386.93,75.93,389.44,76.84Z" style="fill: #ce2028"/>
      <path d="M202.79,196.74c-8.76,5.56-8.59,11.08-6.69,15.1,3.9,8.2,19.23,4.18,22-5.86C220.3,198,212.68,191.54,202.79,196.74Z" style="fill: #ce2028"/>
      <path d="M246.49,212.27c-8.27,6.27-5.42,12.37-5.3,12.62a4,4,0,0,0,.43.73c4.49,6.6,19,.93,21-8.18C264.25,210.18,255.85,206.14,246.49,212.27Z" style="fill: #ce2028"/>
      <path d="M320,340.18h0a8.77,8.77,0,0,0-2.6,11.31c3.7,7.17,13.73,6.53,15.77-1C335.05,343.31,327.39,335.81,320,340.18Z" style="fill: #ce2028"/>
      <path d="M311.49,485l.14-.23-.8.53Z" style="fill: #ce2028"/>
      <path d="M514,195.36a12.08,12.08,0,0,0,.66,2.95c.12,0,.24,0,.36,0l4.34.47a22.1,22.1,0,0,0-2.44-3.18C515.85,194.49,514.07,193,514,195.36Z" style="fill: none"/>
      <path d="M503.52,185c2.42-.05,0-6.22-4.34-11.2-2.51-2.86-6.13-5.53-6.31-2.52.27,3.24,3.44,7.67,5.27,9.76C500.29,183.54,502.35,185.05,503.52,185Z" style="fill: #ce2028"/>
      <path d="M248.47,567.5c4.19,2.61,12.89,3.56,14.32,1.55,1.56-2.19-6.9-6-13.54-5.24-.17,0-.41.06-.58.1C246.12,564.47,246,566,248.47,567.5Z" style="fill: #ce2028"/>
      <path d="M280.13,66.17c-2.91.66-6.94,2.3-3.59,4.37,5.09,2.46,14.23,1.65,14.62,1.62,4.4-.4,7.5-1.47,8.11-2.78C300.69,66.27,288.71,64.25,280.13,66.17Z" style="fill: #ce2028"/>
      <path d="M155.43,124.18c5-3.49,5.86-6.11,5.6-7.1a1,1,0,0,0-.12-.3c-1.69-3-12.49,3.43-13.61,8.07C146.69,127.4,150,127.66,155.43,124.18Z" style="fill: #ce2028"/>
      <path d="M339.32,72.73c2.14-2.5-8.35-6.51-15.58-6-1.24.1-5,.59-2.18,3.12,3.4,2.51,8.91,3.59,11.63,3.84C336.26,74,338.56,73.63,339.32,72.73Z" style="fill: #ce2028"/>
      <path d="M332.87,106.44c-.51,4.59,3.9,7.28,6.57,8.16a12.86,12.86,0,0,0,1.83.45c7,1.17,11.92-3.88,8.61-8.85C346.09,100.49,334.6,99.69,332.87,106.44Z" style="fill: #ce2028"/>
      <path d="M274.42,99.62c4.65-1.92,3.8-4.4,2.57-5.59-3.37-3.21-12.42-2.59-14.47,1S267.4,102,274.42,99.62Z" style="fill: #ce2028"/>
      <path d="M108.81,147.46c5.51-5.12,7.75-8.43,8.21-9.56.07-.2.29-.76,0-1-1.68-1.16-14.66,11.74-14.46,14.39C102.59,151.71,103.12,152.57,108.81,147.46Z" style="fill: #ce2028"/>
      <path d="M131.57,125.81c0,1.14,2.54.51,8.25-3.57,6-4.45,7.75-7,7.82-7.84a.6.6,0,0,0-.11-.41C145.85,112.19,131.68,122.69,131.57,125.81Z" style="fill: #ce2028"/>
      <path d="M125.43,474.29c-4,0-3.21,4-2.08,6.31a17.83,17.83,0,0,0,5,6.07c2.7-.07,5.48-.2,8.37-.43C136.53,482.07,131.26,475,125.43,474.29Z" style="fill: none"/>
      <path d="M130.11,142.55c4.76-3.87,6-6.93,6-8.11a1.4,1.4,0,0,0-.31-.89c-2.2-2.39-12.24,5.78-12.65,10.27C123,145.92,125.5,146,130.11,142.55Z" style="fill: #ce2028"/>
      <path d="M170.11,471.89c-4.69,1-4.05,5.32-2.92,7.72a12,12,0,0,0,1,1.64q6.08-1.42,12.58-3.27C178.63,474.52,174.54,471.49,170.11,471.89Z" style="fill: none"/>
      <path d="M65,357.18c4.27-1.74,4-15.13-1.75-18-3.3-1-4.53,3.33-4.73,6.05C58.05,352,61.62,358.56,65,357.18Z" style="fill: #ce2028"/>
      <path d="M179.67,557.51c.5-.46-4-3.36-8.53-5.7l-2.77.67C173.06,555.28,179.13,558,179.67,557.51Z" style="fill: none"/>
      <path d="M154.56,296.51a10.91,10.91,0,0,0-7.83,10.55,10.7,10.7,0,0,0,.27,1.86c1.9,7.53,12.39,8.16,17,1C168.31,303.26,163.57,294.4,154.56,296.51Z" style="fill: #ce2028"/>
      <path d="M173.4,374h0l.08.06Z" style="fill: #ce2028"/>
      <path d="M241.33,576.66a3.89,3.89,0,0,0-1.57.2c-.38.31.57.87,2.57,1.53,4.95,1.6,12.56,2.64,13.37,2C256.75,579.63,247.11,576.9,241.33,576.66Z" style="fill: #ce2028"/>
      <path d="M460.38,503.19c-4.76,3.87-6,6.92-6,8.1a1.45,1.45,0,0,0,.31.9c2.19,2.38,12.23-5.78,12.64-10.28C467.54,499.82,465,499.72,460.38,503.19Z" style="fill: #ce2028"/>
      <path d="M512.82,345.25l0-.17Z" style="fill: #ce2028"/>
      <path d="M337.88,579.44c-.27.29,0,.45.83.49,4.24.21,16.84-2.75,17.75-4.16.68-1.06-6.06-.35-13.86,1.83C339.87,578.4,338.28,579,337.88,579.44Z" style="fill: #ce2028"/>
      <path d="M470.76,516.71a.76.76,0,0,0-.08-.11c-.76.25-3,1.88-6.89,5-6.5,5.3-9.24,8-9.83,8.82a1.49,1.49,0,0,0-.19.43C455,530.89,469.64,518.72,470.76,516.71Z" style="fill: #ce2028"/>
      <path d="M516.26,357.77c3.52,2.38,7.29-4.29,6.4-11.33-.57-4.54-3.47-8.25-6.89-3.93A15.48,15.48,0,0,0,514.08,354,6.42,6.42,0,0,0,516.26,357.77Z" style="fill: #ce2028"/>
      <path d="M496.74,405.49a5.5,5.5,0,0,0,1.17,2.67c2.5,2.79,6.57-.6,8.3-5.6h0a14.54,14.54,0,0,0,.84-4.9c-.07-4.25-2.78-7.47-7-3.15A14.4,14.4,0,0,0,496.74,405.49Z" style="fill: #ce2028"/>
      <path d="M481.68,498.28c-5.5,5.11-7.75,8.42-8.21,9.56-.06.2-.28.75,0,1,1.69,1.16,14.67-11.74,14.47-14.38C487.91,494,487.37,493.16,481.68,498.28Z" style="fill: #ce2028"/>
      <path d="M270.51,584.26l1.52.14h.2c-1.21-.25-9.79-1.31-15.39-1.87a10.87,10.87,0,0,0-1.64-.12c1.3.18,3,.39,4.84.63Z" style="fill: #ce2028"/>
      <path d="M458.92,519.92c0-1.14-2.53-.5-8.25,3.57-6,4.45-7.75,7-7.82,7.85a.62.62,0,0,0,.11.4C444.65,533.55,458.82,523.05,458.92,519.92Z" style="fill: #ce2028"/>
      <path d="M325,583.3c-.82-.24-8.3.27-15.37,1.08a33.12,33.12,0,0,0-3.37.48c5.19-.24,10.38-.55,14.86-.89A16,16,0,0,0,325,583.3Z" style="fill: #ce2028"/>
      <path d="M293.06,582.84c4.56.89,14,.41,15.09-.75s-7.24-2-14-1.07a8.12,8.12,0,0,0-2.62.72C291,582.15,291.51,582.54,293.06,582.84Z" style="fill: #ce2028"/>
      <path d="M349.76,579.41l1-.2.64-.16Z" style="fill: #ce2028"/>
      <path d="M435.06,521.56c-5,3.49-5.86,6.1-5.59,7.1a1.17,1.17,0,0,0,.11.3c1.69,3,12.5-3.44,13.61-8.08C443.8,518.33,440.46,518.07,435.06,521.56Z" style="fill: #ce2028"/>
      <path d="M322.83,574.78a12.77,12.77,0,0,0-2.31.84c-1.61.81-1.63,1.6,0,2.08,3.94,1.16,13.89-.33,15.21-2.28C336.9,573.62,329.79,573,322.83,574.78Z" style="fill: #ce2028"/>
      <path d="M547.43,383.54c-.28-.67-.84.51-1.11,1.07a50.86,50.86,0,0,0-2.78,10.29c-.42,2.54-.46,4.16-.11,4.24C544.7,399.36,548.24,385.52,547.43,383.54Z" style="fill: #ce2028"/>
      <path d="M548.88,360.27c-.39-1.08-1-.84-1.76.75a34.22,34.22,0,0,0-2,10.85c-.07,2.42.21,4,.72,4.29C547.62,377.1,550.18,363.86,548.88,360.27Z" style="fill: #ce2028"/>
      <path d="M369.31,345.93h0v0Z" style="fill: #ce2028"/>
      <path d="M388,351.87c1.15-6.72-5.84-14-13.43-8.81a9.5,9.5,0,0,0-2.44,11.61,9.76,9.76,0,0,0,.9,1.45C377.67,362.07,386.76,359.49,388,351.87Z" style="fill: #ce2028"/>
      <path d="M298.33,552.27c1.7-3.48-5.63-7.31-12.73-5.43-4.16,1.41-4,3.87-2.17,5.56C287.18,555.78,296.66,555.7,298.33,552.27Z" style="fill: #ce2028"/>
      <path d="M554.05,339a56.83,56.83,0,0,0-1.18,10.9c0,2.83.13,4.68.46,4.83,1.18.57,2.58-15.32,1.48-16.81C554.5,337.48,554.2,338.49,554.05,339Z" style="fill: #ce2028"/>
      <path d="M304,263.43c-5.1,4.24-4,9.54-2.52,12a8.23,8.23,0,0,0,.53.78c4.88,6.56,15.88,3.53,17-4.68C320.13,264.18,311.6,258.29,304,263.43Z" style="fill: #ce2028"/>
      <path d="M326.7,142.42c6.89,3.6,15.93-1.92,14.43-8.81s-13.16-9-17.84-1.29C320.82,137.59,324.27,141.15,326.7,142.42Z" style="fill: #ce2028"/>
      <path d="M38.49,270.84c-1.82,5.88-2.41,14.5-1.07,15.63,1.72,1.46,4.81-10.84,3.83-17.64a4.82,4.82,0,0,0-.36-1.15C40.31,266.73,39.38,267.92,38.49,270.84Z" style="fill: #ce2028"/>
      <path d="M485.37,391.2c3.56,4.21,10.1-1.55,10.3-9.05.14-5.35-3.51-9.84-8.64-4.84a12.28,12.28,0,0,0-2.44,4.15,13,13,0,0,0-.42,7.39A6.36,6.36,0,0,0,485.37,391.2Z" style="fill: #ce2028"/>
      <path d="M348,476.22c2.39,4.85,11,5.44,15.06-.41,3.93-7.06-3-9.84-3.1-9.87C352.9,463.29,345,470.1,348,476.22Z" style="fill: #ce2028"/>
      <path d="M316.07,546.12c-4.64,1.92-3.8,4.4-2.57,5.59,3.37,3.2,12.43,2.59,14.47-1S323.09,543.79,316.07,546.12Z" style="fill: #ce2028"/>
      <path d="M363.61,474.94a3.62,3.62,0,0,0,.24-.43,3.3,3.3,0,0,0-.23.41Z" style="fill: #ce2028"/>
      <path d="M92.17,469c-3.08-.94-1.92,2.68-.75,5,2.81,5.51,8.63,11,10.55,10C104.43,482.66,97.94,471.54,92.17,469Z" style="fill: none"/>
      <path d="M234,552.06c-3.83.27-4.68,2.34-1.9,4.63,4,3.26,13.22,4.93,14.83,1.95C247.84,555.43,239.46,551.67,234,552.06Z" style="fill: #ce2028"/>
      <path d="M446.18,418.55c3.76,4.72,12-.09,13-7.58.73-5.71-3.82-10.64-10.39-5.46-3.88,3.58-4.56,8.34-3.55,11.23A7.29,7.29,0,0,0,446.18,418.55Z" style="fill: #ce2028"/>
      <path d="M516.61,186.72c.83,1.2,3.58,5.11,4.28,4.86.79-1.7-8.19-15.09-9.75-15.71-.47-.19-.28.45-.15.92C512,179.69,515,184.39,516.61,186.72Z" style="fill: #ce2028"/>
      <path d="M528.17,358.13a18.26,18.26,0,0,0-2.11,11.13c.4,2.9,1.44,3.76,1.87,4,3,1.63,6.32-6.95,5.16-13.32C532.6,357.18,530.87,354.41,528.17,358.13Z" style="fill: #ce2028"/>
      <path d="M377.75,93.83c2.68.81,5.16,1,6.64.43,3.2-1.16,1.09-4.84-4.33-7.54s-13.17-3.53-11.81.65C369.91,90.7,375.19,93.06,377.75,93.83Z" style="fill: #ce2028"/>
      <path d="M311.55,487.3c-4.51,2.25-5,6.08-3.57,8.69,3,5.48,13.18,5.3,16-.29S319.67,484.06,311.55,487.3Z" style="fill: #ce2028"/>
      <path d="M469,150.2c.29,3.11,3.88,7.05,6,8.89s4.35,3.19,5.73,3.29c2.61.18,1.59-3.67-2.08-7.9C474.6,149.86,469.22,147,469,150.2Z" style="fill: #ce2028"/>
      <path d="M51,228c-2.92,5.52-5.12,15-3.8,16.3,1.56,1.58,6.12-9.05,6.52-16.65a5,5,0,0,0-.18-1.72C53.11,224.9,52.16,225.68,51,228Z" style="fill: #ce2028"/>
      <path d="M109.4,282c5.4-5.32,3.91-14.86-4.16-15.25-5.77.32-8.52,5.07-9.23,7.84a10.73,10.73,0,0,0-.34,2.75C95.83,284.61,103.91,287.35,109.4,282Z" style="fill: #ce2028"/>
      <path d="M463.71,181.57c-.89,3.61,2.24,7.91,4.23,9.89a13.14,13.14,0,0,0,4,2.8c4.09,1.77,6.2-1,4.36-5.62C473.74,182.28,465.69,176.92,463.71,181.57Z" style="fill: #ce2028"/>
      <path d="M81.79,169.57c0-.75-.82-.28-2.19,1.24-4.64,5.18-12,17.64-11.06,18.81s8.63-9.82,12.24-17.15A10.17,10.17,0,0,0,81.79,169.57Z" style="fill: #ce2028"/>
      <path d="M295.58,239.42c1.76-7.76-7.37-13-16.3-6.77-6.08,5-5.34,10.39-3.93,12.83C279.65,252.91,293.46,248.78,295.58,239.42Z" style="fill: #ce2028"/>
      <path d="M195.51,324.63a9.4,9.4,0,0,0-5.32,10.79,8.87,8.87,0,0,0,.25.92c2.49,7.53,12,8.43,15.73,1.48S203.92,321.82,195.51,324.63Z" style="fill: #ce2028"/>
      <path d="M191,254.42c3.41,7.2,17.69,3.23,20.64-5.74,2.21-6.69-4.39-11.84-13.46-7.81-8.84,4.72-7.75,11.6-7.7,11.9A7,7,0,0,0,191,254.42Z" style="fill: #ce2028"/>
      <path d="M379.16,111.69a14.44,14.44,0,0,0,3.53.9c5.81.67,8.25-3,4.75-7.17-4.45-5.28-15.62-7.3-16-1.6C371.76,107.83,376.63,110.72,379.16,111.69Z" style="fill: #ce2028"/>
      <path d="M74.34,237.79c6.68.56,13.87-16.65,9-21.66-3.87-2.68-8.7,4.94-8.91,5.25C69.93,228.68,69.84,237.42,74.34,237.79Z" style="fill: #ce2028"/>
      <path d="M160.12,346c1.88,7.72,10.84,9.62,14.73,3.11s-1.12-16.1-9.23-14.19c-5.4,1.94-6.11,7.29-5.68,10.16C160,345.39,160.06,345.77,160.12,346Z" style="fill: #ce2028"/>
      <path d="M86.45,361.76c4.61-3.37,3-16-3.6-17.5-4.12-.29-5.4,4.38-5.51,7.17C77.06,358.62,82.43,364.71,86.45,361.76Z" style="fill: #ce2028"/>
      <path d="M496.34,162.21c2.41,2.63,4.4,4.24,5.06,4.08,1.87-.38-6.3-11.38-10.27-13.82-1.61-1-1.28.24-1.17.64C491,156,494.47,160.16,496.34,162.21Z" style="fill: #ce2028"/>
      <path d="M269.66,330.9c-4.67,3-4,8.21-2.85,10.8.11.25.27.59.4.82,3.67,6.69,12.6,6.49,14.71-.31S276.94,327.33,269.66,330.9Z" style="fill: #ce2028"/>
      <path d="M344.47,64.7c-.54.27.84.9,1.57,1.24a74,74,0,0,0,12.35,3.64c3.18.62,5.25.71,5.29.23C363.82,68.38,346.4,63.75,344.47,64.7Z" style="fill: #ce2028"/>
      <path d="M448.55,140.36a14.32,14.32,0,0,0,5.86,2.62c2.84.25,2.79-2.26-.1-5.62-4.2-4.88-12-8.55-12.32-4.93C442.3,135.34,446.26,138.78,448.55,140.36Z" style="fill: #ce2028"/>
      <path d="M441.86,383.69q-3.33,3-6.79,6A9.51,9.51,0,0,0,441.86,383.69Z" style="fill: #ce2028"/>
      <path d="M78.73,320.51c5.91-3,6.16-15.75-1.38-18.08-4.53-.73-6.7,3.77-7.26,6.54C68.58,316.41,73.58,323.09,78.73,320.51Z" style="fill: #ce2028"/>
      <path d="M365.32,496.14h0l.1-.15Z" style="fill: #ce2028"/>
      <path d="M369.21,492.27a9.69,9.69,0,0,0-3.08,2.67v0l-.17.24c-.46.76-1.85,3.07-.64,5.51,2.64,5.35,13.3,3.21,15.21-3C382,493,376.8,488.45,369.21,492.27Z" style="fill: #ce2028"/>
      <path d="M465.94,132.77c1.06,2.71,4.91,6.41,7,8.17,2.72,2.27,5,3.57,5.86,3.3,2-.63-4.84-8.55-10-11.62C467.8,132,465.44,130.78,465.94,132.77Z" style="fill: #ce2028"/>
      <path d="M221.29,153.47a9.67,9.67,0,0,0,3.07-2.68v0l.17-.23c.45-.76,1.84-3.07.64-5.52-2.64-5.34-13.31-3.21-15.22,3C208.53,152.77,213.69,157.28,221.29,153.47Z" style="fill: #ce2028"/>
      <path d="M94,414l0,.11a164.43,164.43,0,0,0,32.24.68c-4.69-4.13-10.59-10-15.11-14.35a149.31,149.31,0,0,1-20.42-1.08c-3.31-.44-6.53-1-9.64-1.64l-2.22-.5a76.62,76.62,0,0,1-23.94-9.77c-1.79,2.36-4,5.58-5.73,8a54.08,54.08,0,0,0,6.11,5l1,.7a77,77,0,0,0,25.55,10.66A110.51,110.51,0,0,0,94,414Z" style="fill: #fff"/>
      <path d="M32.92,344.27h-.15c-.26.46-.32,2-.19,4.42.26,4.81,1.27,11.86,2,12.94h.15c.65-1.32-.42-12.9-1.55-16.72A1.93,1.93,0,0,0,32.92,344.27Z" style="fill: #ce2028"/>
      <path d="M214.51,429.48c-5.07,2-4.71,6.9-3.71,9.46,2.72,6.88,11.91,9,15.14,3.53C229.31,436.74,222.56,427.27,214.51,429.48Z" style="fill: #ce2028"/>
      <path d="M36.3,375.08c-.23-.68-.25-.69-.35-.75a23.57,23.57,0,0,0,.69,4.24c.13.66.33,1.51.53,2.43s.59,2.48,1.07,4.47a38.45,38.45,0,0,0,1.82,6.2C40.13,390.57,37.5,378.93,36.3,375.08Z" style="fill: #ce2028"/>
      <path d="M182.37,421.44c3.39-5.4-2.29-15.55-9.77-14.18-4.73,1.52-4.68,6.43-3.89,9.11C170.8,423.57,179.11,426.65,182.37,421.44Z" style="fill: #ce2028"/>
      <path d="M97.28,304.89c-5.32.18-7.44,5.08-7.85,7.94-1.15,7.93,6.06,13.59,11.68,9.18S105.43,305.62,97.28,304.89Z" style="fill: #ce2028"/>
      <path d="M439.34,115.86c1,2.52,5.24,5.69,7.56,7.17,2.72,1.73,5.12,2.71,6.25,2.57,2.36-.32-1.56-5.06-7-8.46C443.07,115.2,438.78,113.47,439.34,115.86Z" style="fill: #ce2028"/>
      <path d="M74.35,463.19c2.71,5.1,7.33,11,8.67,11.15,1.82.14-4.57-11.5-9.1-15.26a3.19,3.19,0,0,0-.57-.36C72.3,458.29,72.7,460.09,74.35,463.19Z" style="fill: none"/>
      <path d="M259.33,133.29c5.05-2.59,4.53-6,3.42-7.68-3.15-4.69-13.38-3.51-15.41,1.75C245.52,132.07,252.15,136.28,259.33,133.29Z" style="fill: #ce2028"/>
      <path d="M124.63,303.08a10.07,10.07,0,0,0-8,9.37c0,.29,0,.68,0,1,.28,8,9.37,11.13,14.74,5.15S133.45,302.24,124.63,303.08Z" style="fill: #ce2028"/>
      <path d="M133.23,263.67a12,12,0,0,0-9.29,9.57,9.5,9.5,0,0,0,0,2.72c1.4,7.38,11.85,7.76,16.94.62C145.36,270.35,142,262.35,133.23,263.67Z" style="fill: #ce2028"/>
      <path d="M213.69,71.12l-3.26,1.14c2.76-.93,4.89-1.61,6.39-2.09Z" style="fill: #ce2028"/>
      <path d="M308,208.8c-5.49,5.47-4,10.66-2.31,12.86,5.38,6.86,18.76,1.41,19.63-8C326,205.81,316.27,201.75,308,208.8Z" style="fill: #ce2028"/>
      <path d="M276.7,293.34c4.36,6.9,15.35,4.68,17-3.42,1.5-7.27-6.47-13.81-14.24-9.21a9.28,9.28,0,0,0-3.26,11.82C276.36,292.77,276.55,293.09,276.7,293.34Z" style="fill: #ce2028"/>
      <path d="M551.83,323.87c.43.08.76-.59,1-1.68l-1.5,1.2C551.49,323.66,551.67,323.84,551.83,323.87Z" style="fill: #fff"/>
      <path d="M292.76,59.56c5.56.54,11,.78,13.93.76,3.42,0,3.7-.25,3.88-.42-.45-.56-7.39-1.07-13.2-1.21-2.23,0-4.66.08-7.17.13-.41.06-.7.13-.76.23A15.1,15.1,0,0,0,292.76,59.56Z" style="fill: #ce2028"/>
      <path d="M44.79,407.59l0-.09,0,.05-.23-.63Z" style="fill: #ce2028"/>
      <path d="M257.19,65.36a76.88,76.88,0,0,0,16-1c3.58-.65,5.64-1.44,5.53-2.1-.4-2.31-21.26-.75-24.26,1.8C253.3,65,256.13,65.25,257.19,65.36Z" style="fill: #ce2028"/>
      <path d="M105,224.49c-6.85-.34-10.81,8.23-11,8.59a19.5,19.5,0,0,0-1.14,3.38c-1.82,8.22,3.92,13.1,10.4,8.88C110.76,240.47,113.25,226.09,105,224.49Z" style="fill: #ce2028"/>
      <path d="M331.16,512.45c-5.05,2.59-4.52,6-3.41,7.68,3.15,4.69,13.37,3.5,15.41-1.75C345,513.67,338.34,509.46,331.16,512.45Z" style="fill: #ce2028"/>
      <path d="M166.69,231.23c4.32-7.74-.26-16.85-9.77-14.17a15.71,15.71,0,0,0-9.82,12.54,9.84,9.84,0,0,0,.41,4.21C150.15,241.56,161.81,240,166.69,231.23Z" style="fill: #ce2028"/>
      <path d="M301.14,311.64c-4.53,3.39-3.51,8.54-2.21,11.06.13.25.31.56.46.79,4.11,6.43,13.09,5.55,14.79-1.45S308.24,307.51,301.14,311.64Z" style="fill: #ce2028"/>
      <path d="M496.17,398a1.19,1.19,0,0,0,.08-.16,1.31,1.31,0,0,0,.05-.15Z" style="fill: #ce2028"/>
      <path d="M314.1,202.73c-12,3-15.42,14-11.91,20,3.64,6.22,14.11,7.28,22.14-.69a15.61,15.61,0,0,0,3.9-7.19c38.24-36.93,58.95-73.11,60.87-101,6.6-3.67-.14-12.07-9.36-14.57-8.18-2.22-13.34,1.39-10.06,7a13.91,13.91,0,0,0,1.4,1.92C369.28,134.28,349.89,168.16,314.1,202.73Z" style="fill: #ce2028"/>
      <path d="M496.88,396.16c-.19.48-.37,1-.56,1.47,0,0,0,0,0,.05a.21.21,0,0,1,0-.07C496.52,397.12,496.71,396.64,496.88,396.16Z" style="fill: #ce2028"/>
      <path d="M513.13,343.86c-.13.55-.26,1.1-.38,1.65a.3.3,0,0,1,0,.12l0-.09c0-.09,0-.19.07-.29l0-.17C513,344.67,513,344.27,513.13,343.86Z" style="fill: #ce2028"/>
      <path d="M118,303.73c-5,.57-9.91.9-14.62,1-6.87-6.21-14.26-.48-15.89,6.41-1.71,7.22,2.31,15.47,10.06,15.27a9.48,9.48,0,0,0,5.58-2.61q7.56-.13,15.62-1c9.85,6.17,20.44-4.92,17.41-14.82C134.08,301.24,125.55,296.53,118,303.73Z" style="fill: #ce2028"/>
      <path d="M170.79,219.83c-2.83-6.74-12.68-10.31-21.66-.59-13.72,3.91-26.66,5.86-37.89,5.49-4.95-7.89-14.27-1.7-18.51,6-4.77,8.68-3.53,19.15,5.21,19.64,2.32-.16,4-.63,7-2.73,13.16.44,28.3-1.84,44.37-6.43C162,246.31,175.22,230.34,170.79,219.83Zm-41,12.55c.06-.11.09-.21.14-.32s0,0,0,0A2.07,2.07,0,0,0,129.76,232.38Zm1.41-3c.05-.11.11-.21.15-.31h0A3.13,3.13,0,0,0,131.17,229.34Z" style="fill: #ce2028"/>
      <path d="M512.7,345.75s0-.05,0-.06v.06Z" style="fill: #ce2028"/>
      <path d="M350.77,579.21l1.31-.31-.67.15Z" style="fill: #ce2028"/>
      <path d="M346.69,580l-4.5.92C343.39,580.72,344.82,580.43,346.69,580Z" style="fill: #ce2028"/>
      <path d="M512.33,347.27h0c0-.2.09-.41.14-.62Q512.42,347,512.33,347.27Z" style="fill: #ce2028"/>
      <path d="M496.25,397.83A18.53,18.53,0,0,0,495,406c.6,5.75,4.82,8,9.55,2.43a17.91,17.91,0,0,0,2.91-5.37c.1-.28.21-.63.3-.91.51-1.71.26-3.56.78-5.27,3.84-12.69,8.84-25,12.23-37.83,5.89-7.25,3.29-21.7-2.22-21.23-2.6.22-4.65,3.37-5.68,7.23l0,.17a20.78,20.78,0,0,0-.59,7.09c.23,2.14-5.58,22.06-12.16,39.52A16.86,16.86,0,0,0,496.25,397.83Z" style="fill: #ce2028"/>
      <path d="M352.08,578.9c1.77-.4,3.82-.87,6-1.42Z" style="fill: #ce2028"/>
      <path d="M347.42,579.92l-.66.14,4-.85-1,.2Z" style="fill: #ce2028"/>
      <path d="M245.2,576.64a33.46,33.46,0,0,0-7-.64,11.41,11.41,0,0,0,1.69,2,66.31,66.31,0,0,0,16.8,3.12c45-.58,102.31-20.3,155.74-52.39l1.76-1.05a442.21,442.21,0,0,0,71.93-54.1c26.75-25,45.72-49.76,56.55-72.12,2.83-3.56,5.92-16.05,5.07-20.56-1.46,1.94-1.46,1.94-2.63,5.54-11.84,25.1-31.82,51.19-60,77.48a455,455,0,0,1-56,44.38c3.16-4.48,7.43-10.42,10.5-15A457.79,457.79,0,0,0,484,456.93c29.06-27.11,49.66-54,61.4-78.28,3.8-3.4,4.84-15.5,4-20.75l-1.74-.09a21.24,21.24,0,0,0-2.08,6c-12.4,26.12-33.84,54.11-64.09,82.34-8.36,7.8-17.1,15.35-26.13,22.6,14.28-24.68,25.32-44.56,37.51-75.9a16.8,16.8,0,0,0,3.51-5.65c3.7-12.74-3.37-16.86-8.4-13.52-4,2.69-6.05,8.76-6,12.13.09,6.21-25.24,70.53-76.18,137.27-38.9,23.12-79.62,40-116.08,48.12,3.74-8.45,3.74-8.45,7.38-15.83,8.49-3.8,1.44-8.32-1.94-9.44-.11,0-11.61-3.42-15.33,3.09.63,9.59-5.7,17-8.16,25.55A183.06,183.06,0,0,1,245.2,576.64Z" style="fill: #ce2028"/>
      <path d="M219.33,69.39l-2.51.78,3-.91A4.27,4.27,0,0,1,219.33,69.39Z" style="fill: #ce2028"/>
      <path d="M206.54,73.58c1.4-.48,2.71-.93,3.89-1.32l3.26-1.14C211.53,71.83,209,72.7,206.54,73.58Z" style="fill: #ce2028"/>
      <path d="M172.56,373.43l0,0,.81.55h0C173.11,373.82,172.83,373.63,172.56,373.43Z" style="fill: #ce2028"/>
      <path d="M199.63,76.06l6.91-2.48-1.8.63C203,74.84,201.28,75.43,199.63,76.06Z" style="fill: #ce2028"/>
      <path d="M59.36,355.71c4,7.4,8.45,4.44,9.74-.86,2.24-9.24-3.54-21.46-8.59-18.15a7,7,0,0,0-.83.7C39.77,328,31,310.86,32.79,289.1c-.64,5.5-1.35,11.63-1.7,16.56l-.06,1C29.71,328.73,39,346.09,59.36,355.71Z" style="fill: #ce2028"/>
      <path d="M195.94,77.52c1.27-.49,2.65-1,4.08-1.53l-2.84,1Z" style="fill: #ce2028"/>
      <path d="M41.1,248.57l-2.72,10.08a67.43,67.43,0,0,0-2.14,22.24c-.61,8.13.74,8.52,1.3,8.68,4.47-2.71,5.53-24.42,3.62-25a1.35,1.35,0,0,0-.4,0c-.74-8.63.75-18.35,4.42-28.83Z" style="fill: #ce2028"/>
      <path d="M237.2,64.8c-15.11,3.68-15.41,3.75-23.51,6.32l3.13-1,2.51-.78a4.27,4.27,0,0,0,.48-.13l-3,.91c-1.5.48-3.63,1.16-6.39,2.09-3.36,1.17-7,2.47-10.41,3.73,2.55-.93,6.54-2.33,12.46-4.31,13.74-4.2,26.77-6.49,38.22-6.5,2.75,2.3,20.06.41,22.76-.06,1.85-.39,3.71-.75,5.58-1.1l1.68-.52a7.56,7.56,0,0,0,1.82-1.12c0-.16,0-.37-.06-.53-.9-.54-1.49-.9-5.38-1.14a73.35,73.35,0,0,0-8.89.2,132.41,132.41,0,0,0-26.08,2.86Z" style="fill: #ce2028"/>
      <path d="M512.51,346.49v0a5.47,5.47,0,0,0,.15-.58,4.74,4.74,0,0,1-.15.57Z" style="fill: #ce2028"/>
      <path d="M32.79,289.1c.21-1.8.42-3.54.6-5.14C33.12,285.7,32.93,287.41,32.79,289.1Z" style="fill: #ce2028"/>
      <path d="M280.16,548.06h0c.08-.22.11-.29.16-.32A2.06,2.06,0,0,0,280.16,548.06Z" style="fill: #ce2028"/>
      <path d="M84.55,365.32a5.34,5.34,0,0,0,4-2c21.74,2.23,47.65-.93,75.4-8.54,9.35,4.15,16.87-5.19,14.23-14.16-2.34-7.93-12.49-13-18.76-4.12-26.47,7.28-51.17,10.3-71.91,8.15-5.77-6.88-11.07-1.79-11.85,5C75,355.7,78.13,364.83,84.55,365.32Z" style="fill: #ce2028"/>
      <path d="M459.17,416.72h0a3,3,0,0,1,.15-.31C459.28,416.5,459.23,416.61,459.17,416.72Z" style="fill: #ce2028"/>
      <path d="M512.68,345.85a.36.36,0,0,1,0-.1,1,1,0,0,0,0,.14Z" style="fill: #ce2028"/>
      <path d="M460.58,413.69h0c.06-.11.09-.21.15-.32A2,2,0,0,1,460.58,413.69Z" style="fill: #ce2028"/>
      <path d="M512.72,345.66v0s0,0,0,.06Z" style="fill: #ce2028"/>
      <path d="M167.72,391.09l.11.09-.1-.09Z" style="fill: #ce2028"/>
      <path d="M298.86,377.14c8.9-9.93-1.49-20.95-9.55-20.21a9.83,9.83,0,0,0-8.2,5.83c-.46,1.12-29.83,18-73.11,33.79-9.07-4.82-21-11.51-29.83-16.82A14.83,14.83,0,0,0,173.4,374l.07.05-.08-.06c-4.78-3.24-10.1-1.13-11.66,3.79a14.09,14.09,0,0,0-.39,6.39,14.61,14.61,0,0,0,5.75,9.23c.23.15.53.36.77.49,1.7.86,3.7.2,5.4,1.07,12.37,6.32,23.88,14.18,36.39,20.25a509.42,509.42,0,0,0,80.24-35.7C294.54,380.25,296.64,378.74,298.86,377.14Z" style="fill: #ce2028"/>
      <path d="M341.52,64.05a2,2,0,0,0-.14.22c.32.4,1.09,1.29,8.56,3.63A39.59,39.59,0,0,1,366.4,83.83c-3.87,2.85,3.58,8.68,10.3,11.06s13.15,1.71,11.62-2.64c-.07-.17-.19-.37-.28-.54a12.6,12.6,0,0,0-4-3.88,42.17,42.17,0,0,0-17.57-17C366.7,68.52,345.12,63.36,341.52,64.05Z" style="fill: #ce2028"/>
      <path d="M174.31,556.7c5.67,2.62,13.16,6.3,18.93,8.68a81.58,81.58,0,0,0,11.91,3.75,101.44,101.44,0,0,0,11,2,161.78,161.78,0,0,0,39.84-.4c7.79,1,10.83-.82,8.78-3.24-3-3.55-17.68-7.16-20.48-3.11-18.75,2.28-35.94,2-50.75-1.15l-2.15-.49a79.83,79.83,0,0,1-17.92-6.41Z" style="fill: #ce2028"/>
      <path d="M231.52,550.87c-2.72.7-2.72.7-3.55,3a15.37,15.37,0,0,0,1.13,2c4.62,5.1,21.19,8.22,20.44,2.33-.55-4.36,1.48-8.56,10-26.24q6.27-1.77,12.61-3.8c16.39,4.46,33.34,9.06,57.16,12.66q-4,1.65-8,3.18c-10.45,0-12.33,5-10.45,7.82,1.53,2.24,9,4.73,16,1.87a18.39,18.39,0,0,0,2.62-1.75,553.85,553.85,0,0,0,65.9-32.22c17.23-23.6,37.5-52.65,60-98.91,9.57-8.22,6.48-19.82-.75-20.12-7-.29-12.46,8.39-12.1,13.8.22,3.08-22.32,50.56-57.35,99.16-12.49,7.05-25.11,13.51-37.7,19.29-26.22-4.09-45.83-7.57-78.13-18-6.35,2.14-12.62,4-18.83,5.8q-3.45,1.78-6.91,3.49C236.22,540,235.48,541.69,231.52,550.87Z" style="fill: #ce2028"/>
      <path d="M44.79,407.59l-.23-.67-.7-1.91a1.21,1.21,0,0,1,0,.14c1.12,3.35,3.74,10.6,5.22,14.3l-4.34-11.9,0-.05Z" style="fill: #ce2028"/>
      <path d="M44.56,406.92l.23.63c.14.36.31.7.46,1.05-.79-2.2-1.55-4.33-2.25-6.26C43.56,404.05,43.81,404.77,44.56,406.92Z" style="fill: #ce2028"/>
      <path d="M60.45,443.9v0l-1.67-3Z" style="fill: #ce2028"/>
      <path d="M38.24,385.47c-.48-2-.82-3.43-1.07-4.47C37.49,382.38,37.86,383.94,38.24,385.47Z" style="fill: #ce2028"/>
      <path d="M318.38,337.91a.32.32,0,0,1,.12-.08l-.05,0Z" style="fill: #ce2028"/>
      <path d="M83.81,166.33c-.34,0-.73,0-2,1.28-3.14,3.17-10.48,13.68-14.17,21.68-1.07,2.49-1,2.86-.94,3.53-6.46,16.78-5.78,31.16,2.39,41,.17,9.51,6.41,8.6,10.65,4.34,7.94-8,10.29-25.9,3.39-25.92a6.08,6.08,0,0,0-2.55.66c-7-8.4-7.55-20.69-2-35C82.52,171.28,84.21,167.62,83.81,166.33Z" style="fill: #ce2028"/>
      <path d="M456.65,144.89c5.48-1.4-1.83-9.52-7.59-13.06-6-3.71-8-2.38-9.16-1.59-.16,1.71-.2,2,1.46,4.63-.56,34.7-26.63,80.1-75.91,126.11a492,492,0,0,1-59.17,47c-10-.56-12.64,8.35-10,14.73,2.38,5.86,10,10.84,17,5.69a10.91,10.91,0,0,0,3-4.38,588.23,588.23,0,0,0,61.41-49.42C428.65,227.05,455.59,180.11,456.65,144.89Z" style="fill: #ce2028"/>
      <path d="M477.09,151.71c-4.7-4.41-10-6.66-10.17-3.08-.05,1.51,1.44,4,1.93,4.78a94.18,94.18,0,0,1-4.09,24.26c-5.94.6-3.13,9.06,1.61,14.26s11.14,7.41,12.44,2.37a9.59,9.59,0,0,0-.72-5,96.43,96.43,0,0,0,4.2-24.8C486.75,164.39,482.27,156.56,477.09,151.71Z" style="fill: #ce2028"/>
      <path d="M37.29,377.81a.08.08,0,0,0,0,0v0Z" style="fill: #ce2028"/>
      <path d="M302.67,70.12c3-4.86-16-7.13-26.08-4.25-4.16,1.18-6.8,3.29-3.33,5.35,1.81,1.08,5.62,1.65,6.87,1.82a24.26,24.26,0,0,1,7.74,9.76c23.36,2.85,23.8,2.89,45.51,9.84a44.85,44.85,0,0,1,0,8.12c-6.67,4.52-2,11.71,4.35,14.33,6.73,2.78,15.39.76,16.07-5.89a7.65,7.65,0,0,0-2-5.06c1-12.42-2.25-23-9.92-30.78,2.63-5.35-18.55-9-23.24-7-2.83,1.21-.82,3.66,4.77,5.83.26.11.6.23.86.31a31.44,31.44,0,0,1,6.83,10.57c-6.25-2-15.24-4.26-21.66-5.71C307.69,75.27,305.88,72.55,302.67,70.12Z" style="fill: #ce2028"/>
      <path d="M224.55,459.51c-.19.3-.37.6-.55.91l0,0C224.18,460.13,224.36,459.82,224.55,459.51Z" style="fill: #ce2028"/>
      <path d="M228.08,434c-3.65-7.06-14.44-11.05-19.48-2.85-39,12.44-75.47,17.72-104.93,14q-5.28-.69-10.25-1.74c-.8-.18-1.58-.35-2.36-.54-10.52-2.48-19.35-6.24-26.53-11.1-.35-.23-.71-.46-1.05-.7A58.9,58.9,0,0,1,57.27,426c1.17-2.25,2.72-5.24,4-7.4a79.79,79.79,0,0,0,25.07,10.21c.76.19,1.54.36,2.32.53,0,.05,0,.09,0,.14,23.66,5.06,52.95,3.28,84.9-4.15,10,4.2,14.2-4.5,11.12-12.14-3-7.42-12.48-12.76-17.63-4.82-7.49,1.73-14.84,3.16-22,4.25-17.94-14.53-20.7-16.77-33.24-30a148,148,0,0,1-24.14-1q-4.8-.62-9.33-1.59c-.72-.14-1.43-.3-2.13-.47a73.19,73.19,0,0,1-24.16-10.08c-.31-.24-.64-.44-.95-.67a46.69,46.69,0,0,1-17-21.46v.08c-.71-4.54-.87-4.8-1.51-5.92-1.24,5.52,1.18,20.36,2.38,22.74l.28-.39a46.88,46.88,0,0,0,8.93,14.52c-1.12,1.87-2.65,4.35-3.59,6.32a51.15,51.15,0,0,1-3.38-7,.08.08,0,0,1,0,0l0-.06v0c-1.15-4.55-1.28-4.86-1.81-6.11a24.53,24.53,0,0,0,.66,4.6c.35,1.72.48,2.35,1,4.74-.2-.92-.4-1.77-.53-2.43a23.57,23.57,0,0,1-.69-4.24c.1.06.12.07.35.75,1.2,3.85,3.83,15.49,3.76,16.59a38.45,38.45,0,0,1-1.82-6.2c.09.41.18.76.29,1.22l0,.23c1.12,4.29,1.52,5.71,2.08,7.24a1.4,1.4,0,0,0,.12-.18,49.23,49.23,0,0,0,9.37,15.22,36.9,36.9,0,0,0-1.78,5.73,48.92,48.92,0,0,1-3.12-6.33c1.93,5.41,4,11.27,6,15.93a112.47,112.47,0,0,0,9.13,14.4,20,20,0,0,0,.11,4.95c2.82,5.19,6,11.23,8.86,15.84l.87,1.37c-1-4-1.25-5,1.66-12.45a82.2,82.2,0,0,0,25.79,10.52c.78.19,1.57.36,2.38.53,3.35.72,6.82,1.31,10.38,1.77,29.86,3.8,66.85-1.57,106.32-14.16C226.62,450.48,232.12,441.85,228.08,434ZM55.3,400.45a54.08,54.08,0,0,1-6.11-5c1.69-2.43,3.94-5.65,5.73-8a76.62,76.62,0,0,0,23.94,9.77l2.22.5c3.11.67,6.33,1.2,9.64,1.64a149.31,149.31,0,0,0,20.42,1.08c4.52,4.33,10.42,10.22,15.11,14.35A164.43,164.43,0,0,1,94,414.11l0-.11a110.51,110.51,0,0,1-12.13-2.19A77,77,0,0,1,56.3,401.15Z" style="fill: #ce2028"/>
      <path d="M496.06,153.11c3.35,4.24,6.9,8.9,10.32,13.52l-.29-.55C503.27,162.12,499.5,157.4,496.06,153.11Z" style="fill: #ce2028"/>
      <path d="M311.49,485l-.66.3c-1.34.88-2.67,1.76-4,2.63a12.75,12.75,0,0,0-1.05,1.35c-4.63,9.79,7.4,15.12,15.82,11.59.2-.09.45-.24.65-.33,2.16-1.44,2.43-1.64,23.07-39-11,7.93-22.23,15.72-33.67,23.23Z" style="fill: #ce2028"/>
      <path d="M496.06,153.11c-1.25-1.58-2.47-3.11-3.64-4.54C493.54,150,494.78,151.52,496.06,153.11Z" style="fill: #ce2028"/>
      <path d="M381,501.11c-.06.09-.12.2-.19.29l.05-.07C380.9,501.24,381,501.17,381,501.11Z" style="fill: #ce2028"/>
      <path d="M525.55,361a.12.12,0,0,1,0,.07.31.31,0,0,0,0-.08c.13-.47.25-1,.36-1.43C525.8,360,525.67,360.52,525.55,361Z" style="fill: #ce2028"/>
      <path d="M339.17,509.87c-9.1-2-17.83,5.07-13.74,11.08,2.17,3.2,8.95,5.68,16,2C349,518.37,346.46,511.45,339.17,509.87Z" style="fill: #ce2028"/>
      <path d="M369,346.79v0c.07-.19.13-.37.2-.55C369.12,346.43,369.05,346.61,369,346.79Z" style="fill: #ce2028"/>
      <path d="M346.59,468.1l.28-.51c-.09.16-.17.32-.27.47S346.59,468.08,346.59,468.1Z" style="fill: #ce2028"/>
      <path d="M345.38,470.12v0c.14-.22.25-.43.37-.64Z" style="fill: #ce2028"/>
      <path d="M444.66,382.77a2.12,2.12,0,0,0-.14.4,0,0,0,0,0,0,0A2.45,2.45,0,0,0,444.66,382.77Z" style="fill: #ce2028"/>
      <path d="M272.19,327.38c-2.62.19-6.14,1.43-8.05,6.37q-9.18,5.06-18.42,9.64c-22.68-8.41-24.05-8.91-36.82-15-6.56-11.76-18.09-6.88-20.76.41a13.86,13.86,0,0,0-.7,4.87c.23,5.55,5.11,14.36,15.84,10.61,20.5,9.72,23.64,11.22,44.2,18.67,8.52-4.1,17.06-8.47,25.53-13.13,4.53.81,6.42-.58,8.6-2.17C290,338,279.9,326.85,272.19,327.38Z" style="fill: #ce2028"/>
      <path d="M488,150.37c.19,3.42,7.61,11.87,7.7,12,4.63,5.25,6.45,6,7.13,6.22.18-.17.41-.36.58-.53-.21-1-.4-2-2.85-5.65l0,.06a51,51,0,0,0-9.26-15.14l-13.37-14c-9-8.08-21.37-18.45-31-25.83a55.77,55.77,0,0,1,5.81,4.75c-5.81-4.26-13.52-10-19.56-13.87-.35-.23-.7-.45-1.06-.66-5.5-3.1-12.75-7.41-18.38-10.28a58.16,58.16,0,0,1,6.34,3.69c.32.21.65.43,1,.66a46.7,46.7,0,0,1,17.14,21.39l0,0c-3.85.56,2.27,6.24,5.85,8.9,6.15,4.59,12.79,7.24,11.79,3.79-.4-1.37-2.38-3.43-3-4.1l.06,0a47.09,47.09,0,0,0-9-14.48c5.3,4.58,12.41,10.67,17.43,15.58a50.08,50.08,0,0,1,3.41,7l.05,0a1.86,1.86,0,0,0-1.05.44c0,4.15,13.74,16.83,17.12,15.8.26-.59.65-1.5-2.82-5.79a.12.12,0,0,1,.05,0,49,49,0,0,0-9.42-15.16c5,5.13,11.73,12,16.41,17.41a50.46,50.46,0,0,1,3.65,7.41l.06.05-.49-.07Z" style="fill: #ce2028"/>
      <path d="M435.07,389.67c-6,5.28-12.38,10.73-19,16.29A629,629,0,0,1,369,490.19c-6.79,3.4-7.09,8.54-6.31,10.78,1.62,4.6,8.55,6.66,15.43,2.54a12.27,12.27,0,0,0,3.53-3.34l.43-.7c.79-1.54.58-3.26,1-4.88,1.25-5.17,6.81-10.38,9.73-14.82a605.33,605.33,0,0,0,47-89.51h-.05a13.86,13.86,0,0,0,4.2-5.74,22.19,22.19,0,0,0,.73-3.36l-2.84,2.53A88.59,88.59,0,0,1,435.07,389.67ZM365.32,496.14l.1-.14-.1.15Z" style="fill: #ce2028"/>
      <path d="M54.89,312.94c9.12,4.91,9.29,5,15.2,6.75,2.55,3.86,4.57,4,6.91,4.24,11.18-2.3,9.68-19.85,2.38-23.68a6.26,6.26,0,0,0-6.94.63,59.25,59.25,0,0,1-9.52-3.83c-.08-6.52-.32-15.2,0-21.73a54.29,54.29,0,0,0,17.69,7.35A89.66,89.66,0,0,0,96,284.83c8.21,7.67,20.37-1.93,19.18-12-.78-6.6-7.95-12.21-16.24-6.5a82.11,82.11,0,0,1-14.13-2c-19.63-4.65-29.79-16.37-31-32.4,1.62-7.51.82-8.69.43-9.26-1.35.43-1.38.42-2.49,2.32-3,5.09-7.48,18.83-5.43,22.12.94,7.69,3.36,14.38,7.62,19.95C54.17,269.18,53.62,294.55,54.89,312.94Z" style="fill: #ce2028"/>
      <path d="M463.23,364.38l-1.87,1.73c2.8,3.46,7.64,4.66,12.28-.56a15,15,0,0,0,2.84-6,353.86,353.86,0,0,0,28.16-34.08,12,12,0,0,1-1.68.76c-5,5-14.84,14.83-28.4,27.6" style="fill: #ce2028"/>
      <path d="M294.85,228.82c-6-3.92-18.18-1.91-22.81,8.91-35.16,25.37-74.18,45.09-110.22,56.39-9.64-3.42-17.36,4.85-17.87,12.1-.76,10.92,11.65,15.75,20.13,7.84a17.31,17.31,0,0,0,1.48-1.6c9.87-3.08,19.94-6.77,30.1-11,17.25,9.65,21.9,12.23,46,22.19,18.06-9.45,22.35-11.69,41.6-23.41,5.16.23,7.34-1.54,9.88-3.59,9-10.82-.35-20.37-8.55-20.3a12,12,0,0,0-11.39,8.16c-10.46,6.65-21.1,12.87-31.8,18.59-7-3.46-16.42-8.06-23.3-11.8a450.66,450.66,0,0,0,65.17-39.07C298.09,250.4,303.82,234.71,294.85,228.82Z" style="fill: #ce2028"/>
      <path d="M509.21,173.79c.45,3.31,6.81,12.83,6.88,12.93,1.82,2.73,5.06,7.29,6.24,7.36.09-.47.1-.56-.28-1.66a40.69,40.69,0,0,0-2.22-4.56,52.17,52.17,0,0,0-4.7-9.17c-2.61-3.69-5.62-7.85-8.75-12.06a51.85,51.85,0,0,1,3.42,7l-.35-.15A2.32,2.32,0,0,1,509.21,173.79Z" style="fill: #ce2028"/>
      <path d="M533.23,329.35a250,250,0,0,1-5.11,26,16.77,16.77,0,0,0-2.62,5.82.24.24,0,0,0,0,.08l0,.13,0-.13a.24.24,0,0,1,0-.08l-.06.18a26.76,26.76,0,0,0-.66,8.45c.51,5.17,3.07,8.28,6.05,4.65a11.94,11.94,0,0,0,.85-1.25c2.57-4.65,6.77-30.58,8.63-42.82a10.72,10.72,0,0,1-2.11.22A11.52,11.52,0,0,1,533.23,329.35Zm-.42,37.84v0c.05-.16.09-.3.12-.44C532.9,366.89,532.86,367,532.81,367.19Z" style="fill: #ce2028"/>
      <path d="M385.22,360.49c9.25-6,6-19.35-2.92-21.65a11.15,11.15,0,0,0-13,7.09v0s0,0,0,.05a12.45,12.45,0,0,0-.5,6.79c.08.27.33.65.23.92s-5.1,13.14-13.55,31.6q13.65-9.81,28.08-20.84C384.11,363.13,384.7,361.83,385.22,360.49Z" style="fill: #ce2028"/>
      <path d="M345.93,469.19c0-.05.06-.07.09-.12a.36.36,0,0,0,0-.07Z" style="fill: #ce2028"/>
      <path d="M363.14,475.68c0,.05-.08.08-.11.13s-.07.19-.13.3Z" style="fill: #ce2028"/>
      <path d="M555,335.28v.05l-.22-.12c-1.35,1-2.14,10.13-2.28,14.8-.17,6.14.37,7,.58,7.29.3-.1.47-.15.94-2a46.17,46.17,0,0,0,.85-5v.09A84,84,0,0,0,557,335.82c.08-5.13.32-11.59.32-17.21l-.08.06A83.87,83.87,0,0,1,555,335.28Z" style="fill: #ce2028"/>
      <path d="M382.27,499.26c-.21.29-.41.58-.6.88l0,0,0,0C381.87,499.85,382.06,499.56,382.27,499.26Z" style="fill: #ce2028"/>
      <path d="M255.45,582.49a.43.43,0,0,0,.14,0L260,583c-1.88-.24-3.54-.45-4.84-.63l-.13,0A2.71,2.71,0,0,0,255.45,582.49Z" style="fill: #ce2028"/>
      <path d="M429.36,525.24c-33.05,21.47-68.33,38.07-101,47.88-3.39.34-9.37,1.23-11.48,3.45.06.3.13.69.2,1a5.3,5.3,0,0,0,.73.42c2.3.95,10,1.09,16.79-.92a11.33,11.33,0,0,0,2.92-1.32c30.9-9.39,63.92-24.94,94.86-45,8.13-2.73,15-10.75,12.46-13C442.93,516.07,434.94,518.91,429.36,525.24Z" style="fill: #ce2028"/>
      <path d="M546.85,395.44l.48-1.68c-7.28,25.66-27.9,56.27-61.06,87.22q-9.9,9.22-20.58,17.88c-6.68,2.55-12.92,10-13.3,13.33-.33,2.92,3.3,3.08,9.05-1.32.21-.17.48-.4.69-.56a31.55,31.55,0,0,0,4.21-4.29c6.64-5.38,13.09-11,19.27-16.74,27.45-25.63,45.72-51,54.3-73.16C542.05,409.93,545,401.7,546.85,395.44Z" style="fill: #ce2028"/>
      <path d="M256.84,582.53c5.6.56,14.18,1.62,15.39,1.87H272c.87.09,1.72.16,2.52.23h.05a145.89,145.89,0,0,0,26.22-1.06c5.68-.18,9-.75,9.94-1.68-.5-2.5-18.44-2.16-21.72-.33a141.78,141.78,0,0,1-27.9,1.28c-6.59-.74-8.12-.86-8.81-.87l.09.06,2.78.38A10.87,10.87,0,0,1,256.84,582.53Z" style="fill: #ce2028"/>
      <path d="M335.2,579.69l.41.8c1.76.27,9.87-.62,18.47-3.15a26,26,0,0,0,4.16-1.56c28.28-8.91,58.71-24,86.63-43.33,6.34-3.24,15.18-10.51,16.45-14.39l-.72-.7c-4.32.7-12.37,6.78-16.71,10.87-30.47,21.11-63.68,37.56-94.53,47.29C345.49,576.3,338.52,577.88,335.2,579.69Z" style="fill: #ce2028"/>
      <path d="M487.66,492.61c-6.22,4.1-14.67,13.35-16.24,16.6a3.57,3.57,0,0,0-.34,1.54c1.38.8,5.58-2.65,8.85-5.7,2-1.9,3.23-3.18,5.07-5.25,15-14.42,26.59-28.67,34.68-42.08,3.5-6.23,8.09-14.56,11.3-20.93l1.12-2.35C523.59,452.47,508.68,472.42,487.66,492.61Z" style="fill: #ce2028"/>
      <path d="M305.57,489.47c.07-.1.13-.15.19-.24s0-.08.05-.13Z" style="fill: #ce2028"/>
      <path d="M431.41,315.61a369,369,0,0,0,39.12-45.68,11.32,11.32,0,0,1-2.9-2.67,11.58,11.58,0,0,1-.06-13.73l34.28-47.05a94.06,94.06,0,0,0,2.72-19.11l-.05,0,1.55-.81c-.21-6.05-6.36-14.94-12.91-18.62l-2,.63c0,2.66,0,2.66,1.62,6.2a.35.35,0,0,0-.06-.09c-.3,10-2.56,20.83-6.72,32.35-16.28-.3-17.26-.31-33.89.06C441,226.14,411.47,276.87,325.37,336.28c-3.94-.11-5.56.45-8.67,3-7.91,10,1.52,21.26,10.39,19.84C332,358.35,423,293.54,463,223.29c4.8,0,11.22-.06,16,0-12.44,25.38-33.25,53.21-62.07,81.43-3,11.32-6.88,25.71-13,43.86,7.72-6.14,15.64-12.59,23.68-19.26C429.05,324.52,430.33,319.91,431.41,315.61Z" style="fill: #ce2028"/>
      <path d="M394.4,78.51c-.16-.09-.35-.17-1.07-.47l-15.67-5.78a3.44,3.44,0,0,0-.79-.22l.14.07c5.15,1.78,11,4,16.21,6.06A6,6,0,0,0,394.4,78.51Z" style="fill: #ce2028"/>
      <path d="M374.35,71.18c1.94.9,1.94.9,7.3,2.92C430,96.74,413.28,164.55,339,233.83c-9.29,8.68-19.09,17-29.24,24.9-12.09,1-13.81,11.69-11.35,17.09,2.71,5.94,11.42,10.14,19.45,3.52a12.71,12.71,0,0,0,3.74-6.1c10.65-8.3,20.92-17,30.66-26.14C430.14,174.46,447.64,103.36,397,79.62c-1.17-.44-2.47-1-3.76-1.45-.7-.23-1.83-.62-3.78-1.33-2.51-.91-7.58-2.81-11.22-4.23l-1.21-.5c-.75-.27-1.56-.57-2.28-.8Z" style="fill: #ce2028"/>
      <path d="M351.46,464.31c-2.82,1.52-3.91,2.38-5.44,4.76-4.75,10.43,5.48,14.83,12.55,12.57,5.68-1.82,18.41-24.8,31.91-54.6-10.3,8.26-21.05,16.6-32.13,24.86C356,456.27,353.56,460.6,351.46,464.31Zm12.15,10.63v0a3.3,3.3,0,0,1,.23-.41A3.62,3.62,0,0,1,363.61,474.94Z" style="fill: #ce2028"/>
      <path d="M233.92,458.05q11-5,22.82-11.13c2.75-5,6.2-11.23,10.67-19.3a572.32,572.32,0,0,0,72.69-39.43c11.59.77,16-12.54,9-19.62-4.91-5-15.25-5-18.74,4.29a561.72,561.72,0,0,1-76.35,41c-11.22,20-12.66,22.52-24.4,42.1-4.28,1.27-5.84,4.05-6.13,6.73l3.23-1.41C229.41,460.08,230.7,459.51,233.92,458.05Z" style="fill: #ce2028"/>
      <path d="M276.43,144.14c7.13,4.75,19.62,3.33,25-5.63a9,9,0,0,0,.76-7c5.37-9,9-17.63,10.77-25.52,8.65-5.38,3.1-12.27-4.86-14.28-12.09-3-25.32,3.42-20.8,10.19a10.82,10.82,0,0,0,1.62,1.8,76.62,76.62,0,0,1-9.2,21.79C268.2,130.52,270.08,139.89,276.43,144.14Z" style="fill: #ce2028"/>
      <path d="M255.88,155.49a257.13,257.13,0,0,1-45.34,35.7c-12.52.12-19.13,11.2-18.19,18.8,1.55,12.42,18.3,11.83,26.59,1.83a23.6,23.6,0,0,0,2.28-3.41,286.53,286.53,0,0,0,42.21-31.61c5.87,1.65,15.07,2.61,21,4.18l-2.8,2.65a324.78,324.78,0,0,1-27.09,22.59c-15,2.61-20.09,17-13.56,22.48,2.61,2.21,10,4.53,19.34-2.52a19.62,19.62,0,0,0,5.48-7,353.39,353.39,0,0,0,29.55-24.66c18.05-16.85,31.92-33.59,41.41-49.28,10.43-5,8.66-16.08-.52-18.9-8.49-2.63-18.45,3-16.65,12.08a187.45,187.45,0,0,1-19.23,25.93C279.6,160.5,274,159.45,255.88,155.49Z" style="fill: #ce2028"/>
      <path d="M195.49,261c14,1,24.46-13.71,18-21.11-4.19-4.84-15.87-5-23.41,4.6a271.34,271.34,0,0,1-49.51,17.39c-9-4-17.53,3.53-19.2,10.3-1.83,7.38,3.55,14.15,13.22,11.8a16.33,16.33,0,0,0,6.84-4A297.14,297.14,0,0,0,195.49,261Z" style="fill: #ce2028"/>
      <path d="M270.51,584.26,260,583C263.23,583.45,267,583.9,270.51,584.26Z" style="fill: #ce2028"/>
      <path d="M271.82,584.41H272l-1.52-.14Z" style="fill: #ce2028"/>
      <path d="M369.34,345.83a.08.08,0,0,1,0,0,.14.14,0,0,1,0,.06h0Z" style="fill: #ce2028"/>
      <path d="M369.35,345.83h0c.22-.55.43-1.08.62-1.62C369.75,344.74,369.55,345.29,369.35,345.83Z" style="fill: #ce2028"/>
      <path d="M115.15,132.76l-.45.4.33-.23Z" style="fill: #ce2028"/>
      <path d="M131.17,229.34a3.13,3.13,0,0,1,.15-.32h0C131.28,229.13,131.22,229.23,131.17,229.34Z" style="fill: #ce2028"/>
      <path d="M129.76,232.38a2.07,2.07,0,0,1,.15-.34s0,0,0,0S129.82,232.27,129.76,232.38Z" style="fill: #ce2028"/>
      <path d="M136.32,114.69c-5.09,3.71-16.94,13.55-19.17,16.68.22-.08.5-.26.75-.38l5.73-3.89c3.83-3,8.07-6.63,10.35-8.66a320.17,320.17,0,0,1,42.66-27.29l9.94-6.73A272.83,272.83,0,0,0,136.32,114.69Zm.21.61c-.58.77-3.32,3.53-9.82,8.83-3.87,3.13-6.13,4.76-6.9,5l-.08-.11c1.13-2,15.73-14.18,17-14.15A1.33,1.33,0,0,1,136.53,115.3Z" style="fill: #ce2028"/>
      <path d="M119.73,129l.08.11c.77-.25,3-1.88,6.9-5,6.5-5.3,9.24-8.06,9.82-8.83a1.33,1.33,0,0,0,.19-.42C135.46,114.85,120.86,127,119.73,129Z" style="fill: #ce2028"/>
      <path d="M279.59,93.93c-1.53-2.25-8.95-4.74-16-1.87A17.69,17.69,0,0,0,261,93.8,553.19,553.19,0,0,0,195.11,126c-15,20.53-32.31,45.22-51.37,81.77,6-2.27,12.4-4.9,19-7.83a641,641,0,0,1,42.55-67.87c12.49-7.06,25.12-13.51,37.7-19.3,12,1.87,22.59,3.63,33.66,6a54.91,54.91,0,0,0,4.93-10.19c-6.29-1.29-13-2.52-20.45-3.65q4-1.64,8-3.18C279.6,101.7,281.48,96.71,279.59,93.93Z" style="fill: #ce2028"/>
      <path d="M255.56,71.5a12.17,12.17,0,0,0,4.22.52C258.4,71.8,257,71.63,255.56,71.5Z" style="fill: #ce2028"/>
      <path d="M209.51,144.63c.05-.1.12-.2.18-.3a.56.56,0,0,1-.05.08C209.6,144.49,209.54,144.56,209.51,144.63Z" style="fill: #ce2028"/>
      <path d="M265.06,124.78c-2.17-3.19-8.94-5.68-16-2-7.5,4.63-5,11.55,2.31,13.13C260.42,137.84,269.15,130.79,265.06,124.78Z" style="fill: #ce2028"/>
      <path d="M225.17,149.59h0l-.1.15Z" style="fill: #ce2028"/>
      <path d="M207.45,151.14c-1.25,5.17-6.82,10.38-9.73,14.83-1.23,1.87-7,10.78-14.8,24.47,8.35-4.2,16.8-8.77,25.07-13.62,4.2-6.89,8.69-14,13.51-21.28,6.79-3.39,7.08-8.54,6.3-10.78-1.61-4.59-8.55-6.65-15.42-2.53a12.15,12.15,0,0,0-3.53,3.34l-.44.7C207.63,147.81,207.83,149.53,207.45,151.14Zm17.72-1.55-.1.14.1-.15Z" style="fill: #ce2028"/>
      <path d="M208.22,146.47c.21-.28.41-.58.61-.87,0,0,0,0,0,0l0,0C208.62,145.89,208.43,146.18,208.22,146.47Z" style="fill: #ce2028"/>
      <path d="M89,167.41c4.29-4.74,8.9-9.5,13.88-14.28,6.21-4.11,14.67-13.35,16.23-16.6a3.47,3.47,0,0,0,.35-1.54c-1.39-.8-5.59,2.64-8.86,5.69-2,1.91-3.23,3.19-5.06,5.26q-8.61,8.26-15.69,16.42C89.51,164,89.23,165.65,89,167.41Z" style="fill: #ce2028"/>
      <path d="M90.24,160l0,.14c2-2.39,4-4.83,5.72-6.84,3.63-3.6,14-14.63,17.68-18.71,1-1.09,1.28-1.5,1.42-1.7l-.33.23a193.11,193.11,0,0,0-14,14.54c3.78-4.1,8.11-8.68,11.63-12.26l.35-.31c-.11.22-.12.23-.85,1.06-1.13,1.28-4.54,5-10.12,10.86-2.13,2.22-3.64,3.77-4.2,4.27-1.3,1.47-2.6,3-4,4.66Z" style="fill: #ce2028"/>
      <path d="M88.35,198.8c5.31-5.64,10.93-11.29,17-17a453.33,453.33,0,0,1,56.05-44.38c-3.17,4.48-7.43,10.41-10.51,14.95a459.1,459.1,0,0,0-44.36,36.39c-5.86,5.47-11.28,10.92-16.45,16.35a20.73,20.73,0,0,0,5.16,8c4.41-4.52,9-9.05,13.82-13.59q12.56-11.7,26.14-22.6c-8,13.81-15,26.17-21.7,39.83a121.79,121.79,0,0,0,14.41-3.57,592.21,592.21,0,0,1,56.84-90.58c31.05-18.45,63.22-32.84,93.5-42.06a23.5,23.5,0,0,0-7.34-5.34c-30.2,9-62.17,23.31-92.88,41.75l-1.76,1.06a442.56,442.56,0,0,0-71.92,54.1c-6.07,5.67-11.7,11.33-17,17A63.07,63.07,0,0,0,88.35,198.8Z" style="fill: #ce2028"/>
      <path d="M87.48,181.49q7.76-8.33,16.74-16.73c6.6-6.16,13.49-12.14,20.58-17.89,6.68-2.55,12.92-10,13.3-13.32.33-2.92-3.3-3.08-9,1.31l-.69.57a31.57,31.57,0,0,0-4.21,4.29c-6.64,5.38-13.09,11-19.27,16.73s-11.56,11.27-16.71,16.86C87.86,176,87.62,178.72,87.48,181.49Z" style="fill: #ce2028"/>
      <path d="M145.62,113.29c-6.34,3.23-15.18,10.5-16.45,14.38l.73.7c4.32-.7,12.37-6.77,16.71-10.86,29-20.09,60.45-35.89,90-45.77-5.63.54-11.23,1.39-16.51,2.39A339.44,339.44,0,0,0,145.62,113.29Z" style="fill: #ce2028"/>
      <path d="M145.69,128c1.87,1.62,9.87-1.21,15.44-7.55C194.19,99,229.46,82.42,262.18,72.61l.4,0c-.92-.2-1.84-.39-2.8-.55a12.17,12.17,0,0,1-4.22-.52c-2-.19-4.1-.28-6.22-.31-29.83,9.49-61.46,24.54-91.18,43.85C150,117.77,143.13,125.78,145.69,128Z" style="fill: #ce2028"/>
      <path d="M196.83,79.92c-3.41,1.39-6.83,2.91-10.25,4.5l-9.94,6.73a298.3,298.3,0,0,1,30.23-14.1c-3.16.79-6,1.55-8.37,2.23Z" style="fill: #ce2028"/>
      <path d="M101.7,147.05c5.58-5.86,9-9.58,10.12-10.86.73-.83.74-.84.85-1.06l-.35.31c-3.52,3.58-7.85,8.16-11.63,12.26-1,1.13-2.06,2.32-3.19,3.62C98.06,150.82,99.57,149.27,101.7,147.05Z" style="fill: #ce2028"/>
      <path d="M123.63,127.1,117.9,131A43.55,43.55,0,0,0,123.63,127.1Z" style="fill: #ce2028"/>
      <path d="M97.81,150.84a2.74,2.74,0,0,0-.43.59l.12-.11c1.13-1.3,2.17-2.49,3.19-3.62C99.69,148.78,98.7,149.86,97.81,150.84Z" style="fill: #ce2028"/>
      <path d="M189.72,503.67c-4.69,1-3.67,4.77-2.34,6.87,3.31,5.17,11.8,7.95,14.67,4.79C205.44,511.6,197.65,502.88,189.72,503.67Z" style="fill: #ce2028"/>
      <path d="M121.71,513.51c-1.11,0-.55,1.48,1.44,3.73,3.81,4.34,11.14,9.58,12.19,8.23C136.19,523.43,124.84,513.48,121.71,513.51Z" style="fill: #ce2028"/>
      <path d="M532,223.1c.18,3.34,2.24,8.49,3.43,11,1.51,3.17,2.92,5.16,3.59,5,1.9-.32-2.58-13.4-5.7-16.66C532.08,221.16,532,222.61,532,223.1Z" style="fill: #ce2028"/>
      <path d="M120.58,520.42l-.06-.08-1.35-1.1C119.63,519.64,120.1,520,120.58,520.42Z" style="fill: #ce2028"/>
      <path d="M119,512l0-.1v0Z" style="fill: #ce2028"/>
      <path d="M119.12,511.8l0,.09c-.14.68.22,1.47,1.41,3.11-.85,4.17-.86,4.27,0,5.34l14.13,11.57,2.34,1.76-.07,0c-2.33-1.77-3.62-2.74-2-6.74,3.25,1.44,2.88-.1,2.38-1.15C135,521,121.17,509.7,119.12,511.8Zm4,5.44c-2-2.25-2.55-3.72-1.44-3.73,3.13,0,14.48,9.92,13.63,12C134.29,526.82,127,521.58,123.15,517.24Z" style="fill: #ce2028"/>
      <path d="M121.23,521l.11.09,0,0Z" style="fill: #ce2028"/>
      <path d="M119.12,511.8h0a.83.83,0,0,0,.07-.13A.83.83,0,0,0,119.12,511.8Z" style="fill: #ce2028"/>
      <path d="M121.79,521.51c3.69,3.07,11,9,13,10.5l-.11-.1-13.31-10.78Z" style="fill: #ce2028"/>
      <path d="M202.05,515.33c-2.87,3.16-11.36.38-14.67-4.79-1.33-2.1-2.35-5.91,2.34-6.87C197.65,502.88,205.44,511.6,202.05,515.33Z" style="fill: #ce2028"/>
      <path d="M306.81,487.88c1.35-.87,2.68-1.75,4-2.63A10.58,10.58,0,0,0,306.81,487.88Z" style="fill: #ce2028"/>
      <path d="M539.05,239.14c-.67.12-2.08-1.87-3.59-5-1.19-2.51-3.25-7.66-3.43-11,0-.49.05-1.94,1.32-.62C536.47,225.74,541,238.82,539.05,239.14Z" style="fill: #ce2028"/>
      <path d="M243.61,524.19q3.46-1.71,6.91-3.49c-2,.58-4.07,1.2-6.08,1.73C244.15,523.06,243.89,523.61,243.61,524.19Z" style="fill: #ce2028"/>
    </g>
    <path d="M21.91,456.26s83.84,191.81,467.88-149.72C489.79,306.54,110.42,697.45,21.91,456.26Z" style="fill: #ce2028"/>
    <g>
      <g>
        <path d="M533.15,211.92l-19.4-2.09-36.81,50.53,34.36-11.94c.58-1.31,1.19-2.59,1.79-3.85l.59-1.25c1-2,2-4,3.15-6.16A193,193,0,0,1,533.15,211.92Z" style="fill: #ce2028"/>
        <path d="M559.66,278.16c-2.11,1.24-4.08,2.36-6,3.42l-1.22.65c-1.22.64-2.49,1.31-3.77,1.95L538.2,319l48.88-39-2.92-19.29A191.49,191.49,0,0,1,559.66,278.16Z" style="fill: #ce2028"/>
        <path d="M631.27,147.62c-4.82,1.35-9.43,2.93-13.87,4.66-1,.41-2.09.84-3.13,1.27-1.41.58-2.81,1.19-4.19,1.82a168.19,168.19,0,0,0-17.47,9.07,199.34,199.34,0,0,0-71.81,74.84c-1.06,2-2.09,4-3.08,6s-2,4.1-2.88,6.22c-.62,1.4-1.21,2.83-1.8,4.27l28.17,27q2.12-1,4.18-2c2.07-1,4.08-2.08,6.1-3.14s3.94-2.2,5.87-3.33a193.08,193.08,0,0,0,40.79-32.75A194.78,194.78,0,0,0,629,199.32a172.68,172.68,0,0,0,8.31-17.85c.56-1.41,1.11-2.83,1.63-4.27q.59-1.57,1.14-3.18c1.54-4.5,2.91-9.18,4.06-14.05a102,102,0,0,0,2.52-15.55A100.67,100.67,0,0,0,631.27,147.62Z" style="fill: #ce2028"/>
      </g>
      <path d="M480.94,292.53c7.39,1.38,8.33-6,16.77-7-16.18,7.75-13.08,27-20.19,31.19,18.34,4.09,21.54-16.22,32.5-17.82-9.83,4.57-9.21,12.7-10.27,16.21,4.56-6.77,27.13-7.18,32.37-29.41-2.6,6.3-12,15.82-18.14,15.2,1.52-.86,4.67-4.19,7.9-9.34-9.07-.5-19.06,2.85-24.64,9.28,3-7.54.48-16.26,13.69-22.33-6.43-1.45-10.39-1.08-14.88,1.14,2.52-3.88,4.47-12.26,15.37-15.24C493.45,265.18,487,287.81,480.94,292.53Z" style="fill: #ce2028"/>
    </g>
  </g>
  <g>
    <path d="M31.09,212.73l-5-2.35a112.35,112.35,0,0,0-4.56-12.82,41.58,41.58,0,0,0-3.88-7.31,10,10,0,0,0-3.83-3.3,5.07,5.07,0,0,0-4.14-.3,5.55,5.55,0,0,0-3,3,10.68,10.68,0,0,0-1,4.73,14.07,14.07,0,0,0,1.08,5.15l-6-1.45a14.28,14.28,0,0,1-.73-5.93A17.11,17.11,0,0,1,1.68,186a12.3,12.3,0,0,1,6.21-6.5,9.78,9.78,0,0,1,8.28.4,16.29,16.29,0,0,1,5.8,4.75,39,39,0,0,1,4.9,8.76q1,2.35,2.75,7.66L35.81,188l5.69,2.69Z" style="fill: #ce2028"/>
    <path d="M51.3,175.47a11.58,11.58,0,0,1-9.6,5.93q-6.24.4-14.06-4.35T17.31,166.56a11.61,11.61,0,0,1,.84-11.25,11.66,11.66,0,0,1,9.64-5.93q6.29-.42,14.06,4.31t10.29,10.5A11.61,11.61,0,0,1,51.3,175.47Zm-5.42-3.3q3.16-5.21-8-12t-14.32-1.57q-3.15,5.17,8,11.95T45.88,172.17Z" style="fill: #ce2028"/>
    <path d="M60.06,160.08l-4.38-3.33a114.46,114.46,0,0,0-1.78-13.5,41.75,41.75,0,0,0-2.27-7.95,10.16,10.16,0,0,0-3.06-4,5.09,5.09,0,0,0-4-1.16A5.56,5.56,0,0,0,41,132.43a10.55,10.55,0,0,0-2,4.42,14.08,14.08,0,0,0,0,5.26l-5.57-2.67a14.28,14.28,0,0,1,.51-6,17.33,17.33,0,0,1,2.88-5.66,12.26,12.26,0,0,1,7.43-5,9.73,9.73,0,0,1,8,2.11A16.21,16.21,0,0,1,57,130.74a38.82,38.82,0,0,1,3,9.59c.32,1.67.68,4.35,1.09,8.06l8.79-11.53,5,3.82Z" style="fill: #ce2028"/>
    <path d="M64.49,107.54l-3.49,10-5.26-3.38,4.47-12.62,3.85-4.07L91.12,123l-4.84,5.13Z" style="fill: #ce2028"/>
    <path d="M84.9,76.59,94.63,69q5.16-4,10.1-3.8a11.07,11.07,0,0,1,8.42,4.68,11.28,11.28,0,0,1,2.41,5.76,12.12,12.12,0,0,1-1,6.3l17.58,6-6.78,5.3-14.83-5.73-1.07.93-.83.69-2.88,2.24L114.06,102l-5.75,4.49Zm17,9.92,3-2.31q6.18-4.83,2.39-9.68A5.35,5.35,0,0,0,103,72.18a9,9,0,0,0-5.41,2.29l-3.15,2.47Z" style="fill: #ce2028"/>
    <path d="M118.08,51.44,124.22,48l23.06,14.75-1.09-27.19,6.13-3.47,20.56,32-6.4,3.62L152.65,45.31l.74,22.51-5.14,2.9L129.6,59l11.82,22.9L135,85.51Z" style="fill: #ce2028"/>
    <path d="M166.13,25.89l13.65-5.07q9.27-3.43,16.14-.68t10,11.2q3.15,8.49-.38,15.13T192.48,56.64l-13.13,4.87ZM184.34,53.1l5.86-2.17q12.8-4.76,8.32-16.8t-17.21-7.31L175.4,29Z" style="fill: #ce2028"/>
    <path d="M222.68,7.53l4.43-.77,2.82,16.1L252.29,19,249.47,2.84l4.43-.77,6.56,37.43-4.43.77-3.09-17.63-22.36,3.92,3.09,17.63-4.44.77Z" style="fill: #ce2028"/>
    <path d="M281.14.17,286.08,0l16.74,37.45-4.85.17L293,26.28l-17.34.59-4.1,11.65-4.6.15Zm10.31,22.41L283.63,4.49l-6.57,18.58Z" style="fill: #ce2028"/>
    <path d="M325.36,40.08a21,21,0,0,1-9.78-3.33,17.78,17.78,0,0,1-6.44-7.45A19.26,19.26,0,0,1,307.5,19,20.41,20.41,0,0,1,311,9.21a18.32,18.32,0,0,1,7.8-6.41,21.43,21.43,0,0,1,10.91-1.58,23.59,23.59,0,0,1,6,1.43A20.91,20.91,0,0,1,341,5.47l-1.18,4a32.13,32.13,0,0,0-5.72-3,21.1,21.1,0,0,0-5.28-1.21,15.54,15.54,0,0,0-7.9,1.15A13.73,13.73,0,0,0,315,11.28a16.31,16.31,0,0,0-2.75,8,17,17,0,0,0,1,8.16,13.15,13.15,0,0,0,4.76,5.91A16.38,16.38,0,0,0,326,36a24.37,24.37,0,0,0,5.79-.2A34.17,34.17,0,0,0,338,34.32l.11,4A27.45,27.45,0,0,1,325.36,40.08Z" style="fill: #ce2028"/>
    <path d="M355,5.31l4.38,1L355.45,23l21.86-12.51,6,1.39L359.76,25l16.76,24.34-6.43-1.5L354.88,25.46l-4.17,17.87-4.38-1Z" style="fill: #ce2028"/>
    <path d="M407.25,20.21,411.87,22l.86,41-4.53-1.73-.14-12.37-16.21-6.2-8.31,9.14-4.29-1.65ZM408,44.87l-.17-19.71L394.59,39.73Z" style="fill: #ce2028"/>
    <path d="M439.05,38.4l-11.54-6L429.28,29l27.08,14-1.77,3.42-11.54-6L427.33,70.79l-4-2.07Z" style="fill: #ce2028"/>
    <path d="M466.8,49.33l3.69,2.58L461.1,65.3l18.58,13L489.07,65l3.69,2.58L470.93,98.64l-3.68-2.58L477.53,81.4l-18.59-13L448.67,83,445,80.43Z" style="fill: #ce2028"/>
    <path d="M490.82,117.53A19.19,19.19,0,0,1,485.27,99a19.65,19.65,0,0,1,5.13-9.27A19.94,19.94,0,0,1,499,84.37,19.22,19.22,0,0,1,509,84a18.93,18.93,0,0,1,9.17,5,19.33,19.33,0,0,1,5.26,8.49,19,19,0,0,1,.28,10,19.7,19.7,0,0,1-5.12,9.28,20,20,0,0,1-8.56,5.37,19.23,19.23,0,0,1-10.05.43A18.86,18.86,0,0,1,490.82,117.53Zm2.83-3a14.59,14.59,0,0,0,6.74,3.74,14.21,14.21,0,0,0,7.66-.32,16.68,16.68,0,0,0,7.11-4.58,17.19,17.19,0,0,0,4.16-7,14.1,14.1,0,0,0-4-14.55,14.47,14.47,0,0,0-6.73-3.74,14.14,14.14,0,0,0-7.67.32A16.68,16.68,0,0,0,493.83,93a17.17,17.17,0,0,0-4.15,7,14.1,14.1,0,0,0-.16,7.7A14.36,14.36,0,0,0,493.65,114.57Z" style="fill: #ce2028"/>
    <path d="M540.74,113.35l2.65,3.45L533,155.06l25-19.24,2.53,3.29-30.12,23.17-2.66-3.45,10.34-38.23-25,19.21-2.53-3.29Z" style="fill: #ce2028"/>
  </g>
</svg>
